<?xml version="1.0" standalone="no"?><!DOCTYPE svg PUBLIC "-//W3C//DTD SVG 1.1//EN" "http://www.w3.org/Graphics/SVG/1.1/DTD/svg11.dtd"><svg t="1546832016454" class="icon" style="" viewBox="0 0 1024 1024" version="1.1" xmlns="http://www.w3.org/2000/svg" p-id="1035" xmlns:xlink="http://www.w3.org/1999/xlink" width="200" height="200"><defs><style type="text/css"></style></defs><path d="M884.889 322.837c-66.894-23.762-281.993-33.249-281.993-33.249S489.325 45.049 469.906 16.218c-10.212-15.166-25.649-5.858-30.559 0-49.085 58.595-136.913 273.37-136.913 273.37S84.475 314.217 41.377 320.373C-1.724 330.223 26.6 363.47 26.6 363.47l209.338 184.71s-49.259 213.03-61.57 265.985c-9.851 50.483 38.175 33.161 38.175 33.161l249.731-141.523S652.159 820.32 692.792 841.256C732.2 859.73 732.2 830.174 732.2 830.174l-36.189-226.918c7.556-2.613 40.362-18.951 48.145-28.532-4.212 0.703-8.075 1.35-11.628 1.953-7.807 2.218-21.433 4.752-39.565 7.36l-0.007 0.002v-0.001c-89.027 12.819-286.105 27.377-430.758 13.695C287.06 579.97 523.859 394.09 523.859 394.09s-40.256-22.493-309.021-27.235c0 0 247.452-43.808 453.468 0-92.352 62.752-273.503 196.542-273.503 196.542s134.983 18.129 297.164 14.443l-5.317-33.355s169.935-160.083 198.259-189.632c20.945-18.72 7.539-29.333-0.002-32.015z" p-id="1036" fill="#757575"></path></svg>